<?xml version="1.0" encoding="UTF-8"?>
<svg id="Lager_1" xmlns="http://www.w3.org/2000/svg" viewBox="0 0 69.56 45.7">
  <defs>
    <style>
      .cls-1 {
        fill: #1d1d1b;
      }

      .cls-2 {
        fill: #009fe3;
      }

      .cls-3 {
        fill: none;
      }
    </style>
  </defs>
  <path class="cls-1" d="M17.38,39.85c-1.01-2.33-2.02-6.99-2-12.95.05-13.82,7.75-24.2,21.86-24.15,13.47.05,22.57,10.48,22.52,25.68-.02,6.11-1.18,9.96-1.96,11.63l-4.53-1.54c1.03-2.4,1.81-5.81,1.82-9.89.04-11.49-6.38-19.15-17.69-19.19-10.54-.04-17.33,6.85-17.37,18.78-.01,3.86.68,7.79,1.75,10.34l-4.41,1.29Z"/>
  <path class="cls-2" d="M22.44,36.8c-.76-1.61-1.51-4.83-1.51-8.95.01-9.55,5.71-16.72,16.19-16.69,10,.03,16.77,7.24,16.76,17.74,0,4.22-.86,6.88-1.43,8.04l-3.36-1.07c.76-1.66,1.33-4.02,1.34-6.83,0-7.94-4.77-13.23-13.16-13.26-7.82-.02-12.85,4.74-12.86,12.98,0,2.66.52,5.38,1.32,7.14l-3.27.89Z"/>
  <path class="cls-1" d="M29.26,33.21c-.41-.93-.81-2.8-.8-5.2.02-5.54,3.11-9.71,8.76-9.69,5.4.02,9.05,4.2,9.03,10.3,0,2.45-.48,4-.79,4.67l-1.82-.62c.41-.96.72-2.33.73-3.96.02-4.61-2.56-7.68-7.09-7.7-4.22-.01-6.95,2.75-6.96,7.53,0,1.55.27,3.12.7,4.15l-1.77.52Z"/>
  <line class="cls-3" x1="57.58" y1="45.7" x2="39.37" y2="37.92"/>
</svg>